
<svg xmlns="http://www.w3.org/2000/svg" viewBox="-140 -140 280 280">
    <defs>
        <linearGradient id="g0" x1="64.55" y1="66.95" x2="-66.95" y2="64.55" gradientUnits="userSpaceOnUse">
            <stop offset="0%" stop-color="#00e5ff" />
            <stop offset="100%" stop-color="#4c95ff" />
        </linearGradient>
        <linearGradient id="g1" x1="-66.95" y1="64.55" x2="-64.55" y2="-66.95" gradientUnits="userSpaceOnUse">
            <stop offset="0%" stop-color="#4c95ff" />
            <stop offset="100%" stop-color="#9844ff" />
        </linearGradient>
        <linearGradient id="g2" x1="-64.55" y1="-66.95" x2="66.95" y2="-64.55" gradientUnits="userSpaceOnUse">
            <stop offset="0%" stop-color="#9844ff" />
            <stop offset="100%" stop-color="#de3ec3" />
        </linearGradient>
        <linearGradient id="g3" x1="66.95" y1="-64.55" x2="77.96" y2="-50.71" gradientUnits="userSpaceOnUse">
            <stop offset="0%" stop-color="#de3ec3" />
            <stop offset="100%" stop-color="#e73ebc" />
        </linearGradient>
        <linearGradient id="g4" x1="78.46" y1="-50.71" x2="108.26" y2="-50.71" gradientUnits="userSpaceOnUse">
            <stop offset="0%" stop-color="#e73ebc" />
            <stop offset="100%" stop-color="#ff4795" />
        </linearGradient>
        <linearGradient id="g5" x1="108.76" y1="-50.71" x2="-50.71" y2="-108.76" gradientUnits="userSpaceOnUse">
            <stop offset="0%" stop-color="#ff4795" />
            <stop offset="100%" stop-color="#ff5875" />
        </linearGradient>
        <linearGradient id="g6" x1="-50.71" y1="-108.76" x2="-108.76" y2="50.71" gradientUnits="userSpaceOnUse">
            <stop offset="0%" stop-color="#ff5875" />
            <stop offset="100%" stop-color="#ff6a56" />
        </linearGradient>
        <linearGradient id="g7" x1="-108.76" y1="50.71" x2="50.71" y2="108.76" gradientUnits="userSpaceOnUse">
            <stop offset="0%" stop-color="#ff6a56" />
            <stop offset="100%" stop-color="#ff7b37" />
        </linearGradient>
        <linearGradient id="g8" x1="50.71" y1="108.76" x2="119.84" y2="6.28" gradientUnits="userSpaceOnUse">
            <stop offset="0%" stop-color="#ff7b37" />
            <stop offset="100%" stop-color="#ff8721" />
        </linearGradient>
        <linearGradient id="g9" x1="118.84" y1="6.28" x2="37.24" y2="6.28" gradientUnits="userSpaceOnUse">
            <stop offset="0%" stop-color="#ff8721" />
            <stop offset="100%" stop-color="#ff9900" />
        </linearGradient></defs>
    <g fill="none" stroke-width="8" stroke-linecap="round" stroke-linejoin="round">
        <path d="M 64.55 66.95 A 93 93 0 0 1 -66.95 64.55" stroke="url(#g0)" />
        <path d="M -66.95 64.55 A 93 93 0 0 1 -64.55 -66.95" stroke="url(#g1)" />
        <path d="M -64.55 -66.95 A 93 93 0 0 1 66.95 -64.55" stroke="url(#g2)" />
        <path d="M 66.95 -64.55 A 93 93 0 0 1 77.96 -50.71" stroke="url(#g3)" />
        <path d="M 78.46 -50.71 L 108.26 -50.71" stroke="url(#g4)" />
        <path d="M 108.76 -50.71 A 120 120 0 0 0 -50.71 -108.76" stroke="url(#g5)" />
        <path d="M -50.71 -108.76 A 120 120 0 0 0 -108.76 50.71" stroke="url(#g6)" />
        <path d="M -108.76 50.71 A 120 120 0 0 0 50.71 108.76" stroke="url(#g7)" />
        <path d="M 50.71 108.76 A 120 120 0 0 0 119.84 6.28" stroke="url(#g8)" />
        <path d="M 118.84 6.28 L 37.24 6.28" stroke="url(#g9)" />
        
        <g transform="translate(78.04, 6.28) scale(0.65) rotate(0)" stroke="#ff9900" stroke-width="8" fill="none" stroke-linecap="round" stroke-linejoin="round">
            <circle cx="0" cy="0" r="12" /><path d="M 33.9 33.9 L 8.5 8.5" /><circle cx="33.9" cy="33.9" r="12" /><path d="M -33.9 33.9 L -8.5 8.5" /><circle cx="-33.9" cy="33.9" r="12" /><path d="M -33.9 -33.9 L -8.5 -8.5" /><circle cx="-33.9" cy="-33.9" r="12" /><path d="M 33.9 -33.9 L 8.5 -8.5" /><circle cx="33.9" cy="-33.9" r="12" />
        </g>
    </g>
</svg>